<?xml version="1.0" encoding="utf-8"?>
<!-- Generator: Adobe Illustrator 22.0.1, SVG Export Plug-In . SVG Version: 6.00 Build 0)  -->
<svg version="1.1" id="Lager_1" xmlns="http://www.w3.org/2000/svg" xmlns:xlink="http://www.w3.org/1999/xlink" x="0px" y="0px"
	 viewBox="0 0 196 135.4" style="enable-background:new 0 0 196 135.4;" xml:space="preserve">
<style type="text/css">
	.st0{fill:#00AB39;}
	.st1{fill:#FFFFFF;}
	.st2{fill:#D21034;stroke:#000000;}
	.st3{fill:none;stroke:#000000;stroke-linejoin:round;}
	.st4{stroke:#000000;stroke-linejoin:round;}
</style>
<g>
	<rect x="0.9" y="0.8" class="st0" width="195.3" height="134.1"/>
	<rect x="0.9" y="0.4" class="st1" width="195.3" height="73.1"/>
	<g id="g7" transform="matrix(0.71524455,0,0,0.72233546,-36.909739,79.599953)">
		<path id="path9" class="st2" d="M239.3-98.4C239.3-98.4,239.3-98.4,239.3-98.4C239.3-98.4,239.3-98.4,239.3-98.4L239.3-98.4z
			 M239.3-98.4c-19.9,11-37.7,22.5-55.2,37c-8.4,7.3-6,13.2-6.4,19.8c0.3,4.4-1,8.5-3.7,11c-6.2,1.3-12.5,2.5-18.7,3.8
			c-0.6-1.7-1.2-3.4-1.8-5.2c0.6-2.6,2.8-3.9,7.4-2.3c0.4-3.4-2.4-4.8-5.6-6c-1.1-0.9-2.5-1.5-2.3-4.5c-0.5-6.7,10.1,0.5,10.2,0.5
			c0.1,0-0.4-6.7-5.3-8.1c-2.7-0.9-3.8-3.8-2.8-5.9c2.1-4.3,6.2,0.3,9.2,0.5c-0.1-2.8-0.9-4.8-3.3-7c-1.3-0.8-4.5-1.4-4.5-2.7
			c-0.1-1.8,3-2.6,7.2-2.1c-0.9-2.5-3.7-4.2-7.5-5.4c-0.8-1.3-1.5-2.7-2.3-4c-1.1-2-1.6-2.1,0.9-5.9c2.3-1.5,5.2-3.5,7.5-5
			c-0.8-0.1-1.7-0.2-2.5-0.3c0.3-2.7,0.4-3.6,1-8.1c-2.4,3.3-5.4,2.7-8.2,4.1c0,0-7.7,1.4-10.2,4.7c-0.1,0-19.5-1-19.5-1
			c-4.1,0.6-7.7,1.7-8.3,5.8c-9.4,1-19.3,0.1-26.5,9.1c4.9-0.2,9.2-1.4,14.7-0.7c0,0,4.7,0.1,5.7,5.1c0.1,0.2,1.6,0.2,1.6,0.2
			c0.6,0.5,1.2,0.9,1.8,1.4c0.2-0.6,0.5-1.3,0.7-1.9c0.5,0.4,1.1,0.7,1.6,1.1c0.2-0.7,0.3-1.4,0.5-2.1c0.5,0.4,1.1,0.7,1.6,1.1
			c0-0.8,0.1-1.7,0.1-2.5c0.7,0.5,1.4,1,2.1,1.5v-3.3c0,0,7.7,0,10,4.9c0.1,0.1-21.6,4-42.5,2.2c2-1,4-2,6.1-3
			c-7.6-1.6-14.8-3-21.6-8.2c2.5,9.6,15.7,20.8,18.4,20.8c0,0.1-2.6-4.7-2.6-4.7c7.6,0.3,15.2,0.7,22.8,1c0.8,2.5,0.5,5.3,2.5,7.6
			c0,0-1.3,4.2,1.5,5.9c0.1,0.2,3.3-8.4,3.3-8.4s1,2.3,2,3.9c1.4-7.4,9.5-8.6,9.5-8.6s1.7,3.9,1.7,4c-2.5,0.4-5.7,5.5-4,8.3
			c-1.7,0-4.7,5-3.8,7.7c-1.4,1.4-5,3.3-4.1,9.2c-2.8,0.6-4.4,5.7-3.6,11.1c-4.3,4-3.3,11.4,0.6,14.4c-1.6,1.4-2.6,2.5-2.6,4.3
			c-1.5-0.6-2.9-0.1-3.6,0.9c-1.9-1.9-4.5-3.6-6.5-1.8c-0.5-2.3-3.4-4.8-6.7-4.5c0.2-2.4-1-5.3-4.5-6.4c0,0-0.7-11.2-4.1-14.8
			c-0.3-2,0.2-3.4,3-5.1c2.8-1.5,3.4-2.6,3.2-6.9c1.1-2.8,1.9-5.7-1.5-7.6c0.1,3.4-0.9,5-2.3,6.5c-1.6-0.2-2.2,1.7-3.3,2.5
			c-1.5-2.1,3.2-5.3-0.3-9.8c-0.2-0.2-2.5-6-8-5.9c2.7,1.6,3.8,4.2,3.8,6.9c-1.8,5-2.7,8.8-0.9,14.5c-2.3-3.5-3.6-10.1-5.6-11.2
			c-1.7-0.3-2.5-4.3-9-3.2c2.8,0.8,3.7,2.9,4.5,4.9c-1.7,0.9-0.9,3.2,0.4,4.9c-0.2,3.8,2,6,5.5,7.5c-0.6,5.2-1.1,10.4-1.7,15.6
			c-1.4-0.2-3.4,5.1-4.3,5.3c-1.3,0.8-3.6,3.1-1,3.7c-0.8,2.9-1.5,4.6-5.8,5.2c0,0,4.5,2.7,8.2-1.9c4-0.1,2.7-4.9,4.6-7
			c0-0.1,1.1-0.8,2.7-5c0.7,3.7,4.5,15.2,13.2,20.9c7.6,8.1,13.8,15.7,13.7,26.5c3-2.7,4.7-7.1,6.1-11.2c4.1-1.4,10-2,15.2-1.7
			c-0.9,1.9-1.9,3.7-0.6,4.9c-3.7,1.3-4.5,3.9-3,6.6c-3.9,2.6-4.1,4.3-4.2,8.6c-7.1,9.1-11.5,8.8-18.6,6.5c-2.3-1.4-5.9-3.3-7.6-2.3
			c-3-2-7.4-2.3-8.2,2.3c2.3-1.9,3.7-1.5,5.5,0.3c-0.4,0.9-0.7,1.9,0.7,2.4c-0.6,0.7-1.2,1.3-1.8,2c-3.3-0.5-7.7-0.5-8.8,4.3
			c1.7-1.4,5.4-1.7,8.4-0.4c0.6,0.2,1.1,0.4,1.7,0.6c0.1,0.8,0.1,1.5,0.2,2.3c0,0-4.5-0.7-5.7,6.6c4.2-4.5,7.2-3.3,7.2-3.3
			c1.6,2.4,7.6,2,11.8-1.9c6-3.4,7.8,1.5,11.6-1.7c3.2-2.4,7-0.8,9.6,2c3,1.1,6.2,2.1,8.7,0c0,0,3-1.9,6.1,1.2
			c0-3.5-2.5-5.4-5.9-5.5l-1-1c-3.2-0.7-6.8-0.4-9.5-2c1.3-5,3.2-9.5,7-13.3c4.6-4.9,8-7.2,13.8-14.7c-0.2,4.3,3,9,4.8,13.4
			c0,0,3.5-5.5,4-10c0.1,0,4.4-2.2,6.2-4.1c3.8,2.4,10.1-1.9,14.1-5.4c2.5,0.9,4.4,0.9,7.3,0c-2.3,4.7,1.3,9.1,7.2,10.9
			c0.5,4.2,4.7,5,11.1,5.1c0.3,2.5,4.1,2.8,4.1,2.8c-2.4,1.1-3.7,2.2-3.6,4.8c-2.5,0-4.3,0.6-5,3.5c-3.4,0.1-6.8,0.3-9.7,2
			c-3.1-0.5-6.9-1.8-9.3-4.3c-1.3-1.1-1.6-2.6-3.8-3.2c-1.4-1.6-3.1-1.3-3.6,0.3c-1.4-1.1-6.8-1.6-7.7,3.5c2.5-1.8,4.8-2.6,6.4-0.3
			c-0.9,1.6,2.1,2.5,4.7,3.1c1.8,0.1,5,1.8,6.1,4.6c-2.3,0.7-5.9,0.5-8.2-1.3c-2.1-1.7-4.9-1.5-6.5-0.4c-2.1-1.4-7.3,1.2-7.5,5.4
			c2.2-2,4.1-2.9,6.1-1.7c-1,0.2-0.6,0.3-0.5,0.9c1.7,1,3.3,1.9,5,2.9c-2.4,0.6-4.7,1.6-3.7,6.2c0,0,2-3.9,6.5-2.5
			c0.1-0.1,0.6,1.4,1.9,0.4c1.9-2.2,6.4-3.2,10.2-3.6c3.1-0.4,6.2-1.3,8.9,0.5c2.4-1.2,5.1-2.1,7.9-0.1c3.2,1,5.6,4.8,9.7,3.1
			c2-1.4,4.6-1.5,7.2,1.4c0-3.6-2.7-4.9-6.6-5.7c-0.9-0.5-1.8-1.1-2.7-1.6c-2.5-0.4-5,0.1-7.5-1.1c13-3.4,22.1-10.6,28.5-21
			c2.1,0.7,4.1,1.4,6.2,2.2c1.5,0.1,1.6,0.6,4.6,1.5c0.1-4.4-1.8-9-9.7-9.4l-10.4-4c-2.2-2.3-3.2-7.3-0.4-10.2
			c2.8-2.5,3.2-2.2,5.1-5.2c2.2-0.2,4.3,2.1,6.4,2.1c1,2.9,6.6,5.4,10.1,4.6c2.2,2,6.5,3.1,11.1,1.5c2.6,2.3,6.1,3.3,10.1,1.5
			c1.1,1.1,3.3,1.9,6,1.4c0.2,0,1.3,2.9,4.2,3.9c-1.2,1.2-0.5,6.5,0.8,8.3c-0.9,2-1.1,4.2-0.4,6.3c-2.9,1.9-3.5,3.2-2.2,6.4
			c-3.8,6.1-8.3,6.8-12.5,4.9c-1.5-1-3-1.9-4.6-2.9c-1.6-1.6-3.2-3.2-4.9-4.8c-0.8-0.8-2.5-1-2.9,0.7c0,0-6.2-1.4-6.7,3.9
			c2.6-2.5,6.3-0.3,6.3-0.2c0,0.1-0.9,0.7-0.2,1.7c0.2-0.1,4.6,1.6,8.5,3.3c2.1,0.8,2.6,1.1,3.5,1.6c-1-0.5-2.2-1-3.5-1.6
			c-2.4-0.9-4.7-1.6-5.4-1.5c-2.2-0.2-4.6-0.5-5.7,1.2c-2.4,1-6.1,1.8-6,6.3c1.6-2.6,3.8-2.5,6.7-2.3c-0.1,0.2-0.1,0.4-0.2,0.6
			c3.1,1.4,2.5-0.4,5.3-0.6c2.4-0.2,5.8,0.6,7.6,1.2c-2.3,0.7-5.3,0.4-6.8,2c-0.3,0.5-1.2,0.3-0.8,1.6c0,0-4.4-0.1-5.6,6
			c4.5-2.9,7.9-2.8,8-2.8c0.1,0,1.4,0.3,1.4,0.3s5.4-3.6,5.5-3.6c0.1,0,5.2-2.3,7.5,0.3c2.1,1,4.2,1.1,6.4-0.2
			c4.2-1.8,8.1-1.9,11.9,0.6l3.5,2.1c0.5-0.3,1-0.7,1.5-1c0,0,3.9-1.1,6.8,2.4c-1.2-6.1-5.5-6.3-5.5-6.3c-0.3-0.3-0.7-0.6-1-0.9
			c-2.1-0.8-4.1-1.6-6.2-2.4c-0.9-2.2-3.1-4-0.9-6.7c2.3-11.4,5-20,0.6-31.5c4.1,1.8,7.2,7.3,12.4,5.4c0-4.6-17.1-13.4-30.1-20.5
			c21.4-1.1,47-16.9,37.2-36.9c1.6-4.8,3.1-9.7,4.7-14.5c2.2,4.4,6.6,7.8,10.6,9.2c-3.3-6.3-5.2-25.5-3.3-38.8
			c-8.6,10.6-18.1,20.1-28.2,29.7c5,1.2,9.3,0.3,14.1-0.2c-1.4,2.8-2.7,5.6-4,8.4c-13.1-7.7-28.5-1.9-28.7,8.3
			c0.4,12,15.2,13.7,23.8,9.5c-1.7,10.9-26.8,6.9-26.8,6.9c-8.9-3.1-17.4-2.5-26.7-2.5c1.9-6,12.7-11.3,21-9
			c-11.5-12.9,1.6-29,17.5-33.9c-17.3-5.7-2.4-18.9,10.5-28.3c0,0-37.2,15.7-40.6,15.6C232.4-79.1,235.3-91.6,239.3-98.4L239.3-98.4
			z M122.5-83.3c0.9,0,1.9,0.1,2.7,0.3c1.7,0.4,3.7,0.6,3.7,1.1c-0.8,1.3-2.7,2.9-4.6,2.8c-1.9-0.1-3-1.2-3.6-4
			C121-83.3,121.7-83.3,122.5-83.3z M279.1-39.2c2.4,0,5.4,1,8.2,4c-1.4,4-13.3,6-14.1,0.1C273-36.8,275.6-39.1,279.1-39.2
			L279.1-39.2z"/>
		<path id="path11" class="st3" d="M134.8-48.8l1.8,2.6 M136.6-46.1c0,0,0,3.5,0.7,3.6 M135.7-40.6c0.1,0.1,1.9,3.1,1.9,3.1
			 M132.4-36.7c0.1,0,2.3,2.5,2.3,2.5 M136.6-36.1c0,0.1,2.1,4,2.3,4 M133.9-33.4c0,0,0.7,4.8,1.4,4.6 M130.8-24.7l2.1,3.2
			 M134.7-28c0,0,1.1,4.5,2.1,4.1 M137.6-30.7c0.1,0.1,2.1,3,2.7,2.6 M139.8-27l2,3.9 M136.6-23.9c0.1,0.2,1.6,4.7,1.6,4.7
			 M132.8-21.6c0,0,1.5,5,2.8,4.2 M132.2-14.9c0,0,0.1,2.6,1.4,2.8 M134.5-16.2c0,0.1,1.3,1.9,1.3,1.9 M138.3-19.3l1.1,1.7
			 M141.7-22.5l1.6,2.1 M134.1-46.1c0.1,2.2,3.6-0.8,5-2.7 M132.6-38.4c0,0,3.9-2.7,6.8-6.8 M131.4-31.9c2.7-0.7,7.7-6.8,8.7-10
			 M130.8-25.9c0.7,0.3,10-6.4,10.3-11.3 M130.6-20.7c0-0.1,8.5-2.2,12-11.5 M130.1-13.7c0,0,13.6-8.1,14.3-14.1 M236.1,0
			c0,0-0.9,7-7.9,8.1 M238.4,12.6c0.1-0.1,6.7-7.4,5-9.6 M253.8,5.5c0,0-0.1,5.1-4.3,8.6 M262.1,7c0,0,0.2,6.2-2.5,8.6 M269.7,10.7
			c0,0-2.9,5.8-4,6.3 M269.6,20.9c0,0,3.9,1,5.1-1.6 M270.6,29.2c0,0,3.6,0.6,5.2-2.8 M270.2,35.7c0,0,2.9,2.4,4.9-0.8 M228.6-11.7
			c0,0-0.3,12.5,17.2,15c19.6,5.4,28.9,2.5,30,24.5c-0.7,8.4-1.8,17.8-7.8,14.2 M210-0.2c0,0,2.8,5,6.2,4.7c4.4-1.3,6.1,1.4,6.1,1.4
			 M198,4.8c0,0,7.4,3.6,13.7-2.2 M198.8-0.4c0.7,8.6-9.9,13.5-14.1,12.7 M199.3,32.6c0.1,0,5.7-3.4,4.6-5.8 M188.1,27.6
			c0.2-0.2,9.5-1.1,11.2-4.4 M183.7,13.8c0-0.1,13.3,0,14.2,2.5 M201.4,5.9c0,0-13,22.1,11,22.1 M187.7,5.6c0,0-2.8,8.3-6.7,11.1
			 M173.9,2.7c0,0,4.8,9.3,0,13.9 M161.3,5.4c0.1,0.2,1.6,13.2-1.7,16.9 M155.1,5.8c0,0,0.5,8.3-2,11.2c-2.5,3,0.6,9.1,0.6,9.1
			 M123.8,30.1c0,0,1.8,3.1,4.2,2 M126.8,23.3c0,0,3.9,1.7,5.2,1.1 M131.1,9.4c0,0-5.8,1.6-3.6,8.5c3.4,2.7,6.6,2.3,6.6,2.3
			 M119.6,38.7c-0.1,0,0.7,5.4,4.4,1.3c2.6-5.5,10.9-21,12.8-26.3 M140.7,11.1c0,0-4-3.1-3.9,1.2c-0.1,2.7,1.2,3.4,1.2,3.4
			c0.2,2,1.9,4.8,3.3,2.2c0.6-2.5-0.4-3.5-0.4-3.5 M143.2,10c-3.6-0.2-5.6,7.7,1.4,2.7 M147,7.2c0,0-0.9,1.2-2.3-0.1
			c-0.7-1.3-3.4,5.9,1.2,6.2c0.8-2.1,3.4-2.7,3.4-2.7 M151.4,3.8c0,0-2.1,1-2.8,0.8c-2.5,0.6-2,6.3,1.1,6c1.1-1.2,2.2-3,2.2-3
			 M132.1-3.7c-0.1,0-8.1,12.7,4.5,16 M234.3-22.8c0,0-4.9,4.2-0.3,10.9c-15.3-0.2-23.5,6.8-24.1,11.6C190.5-1.7,194,4,187.7,5.9
			c-8.4-7.1-20.8-3.1-20,3.9c-5.7-8-14.4-4.1-15.4-2.1c-1.1,2-0.7-9.8-0.7-9.8s-5.7,2.5-9.6,7.2c0.1-3.1,0-8.2,0-9.8
			c-4.7,1-9.3,1-14.2,0.9 M115-7.4c0,0,7.1,3.9,15.7-1.4 M114.4-21.5c0,0,5.5,4.9,15.8,3.4 M117.9-32.9c0,0,1.2,4,13,4.3
			 M121.9-42.2c0,0,4.4,5.4,10.4,4.6 M125.7-49.9c0,0,1.7,3,8.3,3.4 M129.5-58.5c0,0,3.4,3.8,7.4,3.1 M150-89.2c0,0,1.5-1.5,4.1-0.8
			 M148.9-81.2c0,0-4.7-0.2-4.4-2c0.3-2.1,5-3.6,5-3.6s6.2-4,7.1-5.3 M128.6-70.5l6,11.5l2.9-4.3l1.5,3l2.5-4.3l4.2,2.7l-1.6-5.3
			l3.6-0.3c0,0-0.9-2.5-4.2-3.1c0.8-0.7,3.8-2.6,3.8-2.6s-1.7-1.9-4.3-2c0.8-0.9,2-3.2,1.9-3.2c-0.1,0-2.6-0.6-2.6-0.6
			s6,1.9,10.7-0.8 M141.5-89c0.1,0.1-0.3,2.4-1.6,3.7 M118.3-82.7c0,0,3.7-1,6.5-0.4c2.8,0.6,6.5,1.5,6.5,1.5s4.4-0.6,5.8-1.6
			 M109.1-80.2c0,0-0.5,1.8-0.7,3c0,0.8-2.7,1.9-2.7,1.9 M110.8-83.9c0,0,2.4,3,2.5,4.7c0.1,1.7-1.8,3-1.8,3 M86.3-63.6l-2.5-4
			l2.2-0.8 M130.7-8.7c-2-2.5,1.5-41.6,8.8-51.8c-2.5,18.4,5.9,37.2,8,37.1 M108.5-71.3c0,0,3.3,1.3,10.2-4.2 M128-62.3l4.9,0.1
			 M281.3-92.9c0,0-82.3,38.5-83.5,40.5c13.9-4.2,72.9-14,74.3-13.2c-3.5,0.8-75,17.3-78.4,21.2c17.9-0.6,55.3,5.8,61.1,11.9
			c-12.7-2.9-50.7-8.5-62.3-6c8.5,2,41.1,23.1,41.1,26.5c-4.9-4.7-44.1-20.9-45.7-19.3c9,5.4,21.7,25.4,21.7,30.3
			c-2.6-4.2-25.3-28.5-26.6-27c2.4,3.4,7.1,32.1,4.7,33.4c0-3.5-8.8-28.6-9.5-29.3c-1.8,0.5-13,30.7-10.8,33.5
			c-1.4-10.1,0.2-31.1,3-30.2c-4.9,0.7-20.6,21.4-18.9,24.6c0.5-5.2,1.2-8.6,10.1-25.7c-9.8,0.6-30.2,13.4-33.7,18
			c2.8-8.2,20-21.9,27.6-22.9 M191-56.6c8.7-4.8,35.6-14.7,53.5-21.9 M174.1-30.6c0,0,5.9-0.1,11.9-16.2c5.8-22,52.2-46.6,53.1-51.2
			 M95.6-8.5c0,0-1.4,2.9-3.1,3.8 M102.3-4c0,0-1.8,3.6-2.3,5.3 M108.6-2.3c0,0,1.5,4.9,0.3,7.2 M90.9-14.9
			c-4.7,2.6,2.7,19.2,24.8,20.8 M112.1-3.1c0,0-0.6,3,3.6,8.9c-1.2,6.6,5,11.8,7.5,12.7 M110.3-62.7c0-0.1,0.7-1.8,0.7-1.8l0.8,2
			l1.2,0l0.8-2l0.7,2h1.2l0.7-2.2l1.1,2.1l1,0l0.8-2.5l1.6,1.8l0.6-0.2l0.5-2.5l1.5,1.8l0.4-0.3l0.7-2.5l1.3,1.9l0.6-0.2l0.6-2.1
			l1.2,1.9 M109-62.4l9.2-0.1c2.9,0,7.8-4.1,13.2-2.8 M89.5-42.7c0,0,1.5,3.3,3.6,1.4 M85.9-40.5c0,0-3,8,0.6,9.8 M81.7-49.3
			c0,0,0,1.9,3.9-1 M69.6-7.4c0,0,3.1,0.9,2.6,3.3 M70.8-44c0,0,1.9,0.9,3.8-1.9 M91.4,47.7c3.1-0.2,3.7,1.2,6.5,1.2
			c3.2,0.1,6.3-1.2,10.4-2.3 M134.5,54c-0.1,0-1.4,2.9-0.3,4.3 M91,54.2c0,0,4.8-4,7.4-1.5c2.5,0.8,3.8,0.7,3.8,0.7 M93.6,42.9
			c0,0,1.2,3.1-2.8,2.6 M89.6,49.9c0,0,2.5,1.6-0.3,3.7 M91.1,56.5c0,0,3.5,0.5,1.4,3.3 M203.3,35.4c0,0,9.4,1,9.9,1.7
			c1.1-1.1,9.5-8-0.8-8.9C210.6,35.2,203.5,35.5,203.3,35.4L203.3,35.4z M200,40.1c3.5,2.8,2.1,4.5,13.1-2.9 M194.9,43.6
			c0,0,5.2,5.6,9-1.2 M185,45.6l-7.1,3.7 M165.3,54.5c0,0,4.3-3.7,6.3-1.7c2,2,10.5-1.7,10.5-1.7 M168.5,38.5c0,0,1.5,2.9-1.4,3.3
			 M162.9,47.7c0,0,1.5,2.8-1.4,3.5 M166.2,55.2c0,0,4.4,0.2,2.9,3.6 M207.8,54.6c0,0-2.4,2.1-0.7,4.4 M243.2,39.8
			c0,0,2.8,1.4-0.5,3.7 M239.8,48.4c0,0,2.1,2.2,0.7,4.1 M245.8,56.9c0,0,2.9,0.8,2.6,3.3 M286.8,54.7c0,0-2.4,1.8-1.1,4.1
			 M243.3-16.6c5.9-0.7,14.3,12.3,18.5,14.9 M287.5-35c0,0,3,2.6,0.4,8.8 M293-45c0.8,0.6,4,2.3,6.1,6.3 M301.1-64.5
			c0,0.1-4.1,11.1-4.1,11.1 M305.7-65c0,0-0.8,9.9-2,11.9 M287.4-35.2c-1.4,4-13.3,6-14.1,0.1C272.9-38,280.3-42.6,287.4-35.2z"/>
		<path id="path13" class="st4" d="M122.5-83.3l4.6,0.8C127-82.4,123.8-78.1,122.5-83.3z"/>
	</g>
</g>
</svg>
