<?xml version="1.0" encoding="utf-8"?>
<!-- Generator: Adobe Illustrator 22.0.1, SVG Export Plug-In . SVG Version: 6.00 Build 0)  -->
<svg version="1.1" id="Lager_1" xmlns="http://www.w3.org/2000/svg" xmlns:xlink="http://www.w3.org/1999/xlink" x="0px" y="0px"
	 viewBox="0 0 196 135.4" style="enable-background:new 0 0 196 135.4;" xml:space="preserve">
<style type="text/css">
	.st0{fill:#E52521;}
	.st1{fill:#293287;}
	.st2{fill:#1F692E;}
	.st3{fill:#FFCE05;}
</style>
<g>
	<rect class="st0" width="66.2" height="133.9"/>
	<rect x="66.2" class="st1" width="128.5" height="133.9"/>
	<g>
		<rect x="56.3" class="st2" width="9.8" height="133.9"/>
		<rect x="66.2" class="st3" width="9.8" height="133.9"/>
	</g>
	<g>
		<path class="st1" d="M66.2,115.9c-27,0-49-22-49-49s22-49,49-49 M66.2,23.9c-23.7,0-43,19.3-43,43s19.3,43,43,43"/>
		<path class="st0" d="M66.2,17.9c27,0,49,22,49,49s-22,49-49,49 M66.2,109.9c23.7,0,43-19.3,43-43s-19.3-43-43-43"/>
	</g>
</g>
</svg>
