<?xml version="1.0" encoding="utf-8"?>
<!-- Generator: Adobe Illustrator 22.0.1, SVG Export Plug-In . SVG Version: 6.00 Build 0)  -->
<svg version="1.1" id="Lager_1" xmlns="http://www.w3.org/2000/svg" xmlns:xlink="http://www.w3.org/1999/xlink" x="0px" y="0px"
	 viewBox="0 0 512 512" enable-background="new 0 0 512 512" xml:space="preserve">
<g>
	<rect x="-0.2" y="80.6" fill="#00AB39" width="512.4" height="351.8"/>
	<rect x="-0.2" y="79.6" fill="#FFFFFF" width="512.4" height="191.8"/>
	<g id="g7" transform="matrix(0.71524455,0,0,0.72233546,-36.909739,79.599953)">
		<path id="path9" fill="#D21034" stroke="#000000" d="M540.5,29.4L540.5,29.4L540.5,29.4L540.5,29.4z M540.5,29.4
			c-52.2,28.9-98.9,59-144.8,97.1c-22,19.2-15.7,34.6-16.8,51.9c0.8,11.5-2.6,22.3-9.7,28.9c-16.3,3.4-32.8,6.6-49.1,10
			c-1.6-4.5-3.1-8.9-4.7-13.6c1.6-6.8,7.3-10.2,19.4-6c1-8.9-6.3-12.6-14.7-15.7c-2.9-2.4-6.6-3.9-6-11.8
			c-1.3-17.6,26.5,1.3,26.8,1.3c0.3,0-1-17.6-13.9-21.3c-7.1-2.4-10-10-7.3-15.5c5.5-11.3,16.3,0.8,24.1,1.3
			c-0.3-7.3-2.4-12.6-8.7-18.4c-3.4-2.1-11.8-3.7-11.8-7.1c-0.3-4.7,7.9-6.8,18.9-5.5c-2.4-6.6-9.7-11-19.7-14.2
			c-2.1-3.4-3.9-7.1-6-10.5c-2.9-5.2-4.2-5.5,2.4-15.5c6-3.9,13.6-9.2,19.7-13.1c-2.1-0.3-4.5-0.5-6.6-0.8c0.8-7.1,1-9.4,2.6-21.3
			c-6.3,8.7-14.2,7.1-21.5,10.8c0,0-20.2,3.7-26.8,12.3c-0.3,0-51.2-2.6-51.2-2.6c-10.8,1.6-20.2,4.5-21.8,15.2
			c-24.7,2.6-50.6,0.3-69.5,23.9c12.9-0.5,24.1-3.7,38.6-1.8c0,0,12.3,0.3,15,13.4c0.3,0.5,4.2,0.5,4.2,0.5c1.6,1.3,3.1,2.4,4.7,3.7
			c0.5-1.6,1.3-3.4,1.8-5c1.3,1,2.9,1.8,4.2,2.9c0.5-1.8,0.8-3.7,1.3-5.5c1.3,1,2.9,1.8,4.2,2.9c0-2.1,0.3-4.5,0.3-6.6
			c1.8,1.3,3.7,2.6,5.5,3.9V89c0,0,20.2,0,26.2,12.9c0.3,0.3-56.7,10.5-111.5,5.8c5.2-2.6,10.5-5.2,16-7.9
			c-19.9-4.2-38.8-7.9-56.7-21.5c6.6,25.2,41.2,54.6,48.3,54.6c0,0.3-6.8-12.3-6.8-12.3c19.9,0.8,39.9,1.8,59.8,2.6
			c2.1,6.6,1.3,13.9,6.6,19.9c0,0-3.4,11,3.9,15.5c0.3,0.5,8.7-22,8.7-22s2.6,6,5.2,10.2c3.7-19.4,24.9-22.6,24.9-22.6
			s4.5,10.2,4.5,10.5c-6.6,1-15,14.4-10.5,21.8c-4.5,0-12.3,13.1-10,20.2c-3.7,3.7-13.1,8.7-10.8,24.1c-7.3,1.6-11.5,15-9.4,29.1
			c-11.3,10.5-8.7,29.9,1.6,37.8c-4.2,3.7-6.8,6.6-6.8,11.3c-3.9-1.6-7.6-0.3-9.4,2.4c-5-5-11.8-9.4-17.1-4.7
			c-1.3-6-8.9-12.6-17.6-11.8c0.5-6.3-2.6-13.9-11.8-16.8c0,0-1.8-29.4-10.8-38.8c-0.8-5.2,0.5-8.9,7.9-13.4
			c7.3-3.9,8.9-6.8,8.4-18.1c2.9-7.3,5-15-3.9-19.9c0.3,8.9-2.4,13.1-6,17.1c-4.2-0.5-5.8,4.5-8.7,6.6c-3.9-5.5,8.4-13.9-0.8-25.7
			c-0.5-0.5-6.6-15.7-21-15.5c7.1,4.2,10,11,10,18.1c-4.7,13.1-7.1,23.1-2.4,38c-6-9.2-9.4-26.5-14.7-29.4
			c-4.5-0.8-6.6-11.3-23.6-8.4c7.3,2.1,9.7,7.6,11.8,12.9c-4.5,2.4-2.4,8.4,1,12.9c-0.5,10,5.2,15.7,14.4,19.7
			c-1.6,13.6-2.9,27.3-4.5,40.9c-3.7-0.5-8.9,13.4-11.3,13.9c-3.4,2.1-9.4,8.1-2.6,9.7c-2.1,7.6-3.9,12.1-15.2,13.6
			c0,0,11.8,7.1,21.5-5c10.5-0.3,7.1-12.9,12.1-18.4c0-0.3,2.9-2.1,7.1-13.1c1.8,9.7,11.8,39.9,34.6,54.8
			c19.9,21.3,36.2,41.2,35.9,69.5c7.9-7.1,12.3-18.6,16-29.4c10.8-3.7,26.2-5.2,39.9-4.5c-2.4,5-5,9.7-1.6,12.9
			c-9.7,3.4-11.8,10.2-7.9,17.3c-10.2,6.8-10.8,11.3-11,22.6c-18.6,23.9-30.2,23.1-48.8,17.1c-6-3.7-15.5-8.7-19.9-6
			c-7.9-5.2-19.4-6-21.5,6c6-5,9.7-3.9,14.4,0.8c-1,2.4-1.8,5,1.8,6.3c-1.6,1.8-3.1,3.4-4.7,5.2c-8.7-1.3-20.2-1.3-23.1,11.3
			c4.5-3.7,14.2-4.5,22-1c1.6,0.5,2.9,1,4.5,1.6c0.3,2.1,0.3,3.9,0.5,6c0,0-11.8-1.8-15,17.3c11-11.8,18.9-8.7,18.9-8.7
			c4.2,6.3,19.9,5.2,31-5c15.7-8.9,20.5,3.9,30.4-4.5c8.4-6.3,18.4-2.1,25.2,5.2c7.9,2.9,16.3,5.5,22.8,0c0,0,7.9-5,16,3.1
			c0-9.2-6.6-14.2-15.5-14.4l-2.6-2.6c-8.4-1.8-17.8-1-24.9-5.2c3.4-13.1,8.4-24.9,18.4-34.9c12.1-12.9,21-18.9,36.2-38.6
			c-0.5,11.3,7.9,23.6,12.6,35.2c0,0,9.2-14.4,10.5-26.2c0.3,0,11.5-5.8,16.3-10.8c10,6.3,26.5-5,37-14.2c6.6,2.4,11.5,2.4,19.2,0
			c-6,12.3,3.4,23.9,18.9,28.6c1.3,11,12.3,13.1,29.1,13.4c0.8,6.6,10.8,7.3,10.8,7.3c-6.3,2.9-9.7,5.8-9.4,12.6
			c-6.6,0-11.3,1.6-13.1,9.2c-8.9,0.3-17.8,0.8-25.4,5.2c-8.1-1.3-18.1-4.7-24.4-11.3c-3.4-2.9-4.2-6.8-10-8.4
			c-3.7-4.2-8.1-3.4-9.4,0.8c-3.7-2.9-17.8-4.2-20.2,9.2c6.6-4.7,12.6-6.8,16.8-0.8c-2.4,4.2,5.5,6.6,12.3,8.1
			c4.7,0.3,13.1,4.7,16,12.1c-6,1.8-15.5,1.3-21.5-3.4c-5.5-4.5-12.9-3.9-17.1-1c-5.5-3.7-19.2,3.1-19.7,14.2
			c5.8-5.2,10.8-7.6,16-4.5c-2.6,0.5-1.6,0.8-1.3,2.4c4.5,2.6,8.7,5,13.1,7.6c-6.3,1.6-12.3,4.2-9.7,16.3c0,0,5.2-10.2,17.1-6.6
			c0.3-0.3,1.6,3.7,5,1c5-5.8,16.8-8.4,26.8-9.4c8.1-1,16.3-3.4,23.4,1.3c6.3-3.1,13.4-5.5,20.7-0.3c8.4,2.6,14.7,12.6,25.4,8.1
			c5.2-3.7,12.1-3.9,18.9,3.7c0-9.4-7.1-12.9-17.3-15c-2.4-1.3-4.7-2.9-7.1-4.2c-6.6-1-13.1,0.3-19.7-2.9
			c34.1-8.9,58-27.8,74.8-55.1c5.5,1.8,10.8,3.7,16.3,5.8c3.9,0.3,4.2,1.6,12.1,3.9c0.3-11.5-4.7-23.6-25.4-24.7l-27.3-10.5
			c-5.8-6-8.4-19.2-1-26.8c7.3-6.6,8.4-5.8,13.4-13.6c5.8-0.5,11.3,5.5,16.8,5.5c2.6,7.6,17.3,14.2,26.5,12.1
			c5.8,5.2,17.1,8.1,29.1,3.9c6.8,6,16,8.7,26.5,3.9c2.9,2.9,8.7,5,15.7,3.7c0.5,0,3.4,7.6,11,10.2c-3.1,3.1-1.3,17.1,2.1,21.8
			c-2.4,5.2-2.9,11-1,16.5c-7.6,5-9.2,8.4-5.8,16.8c-10,16-21.8,17.8-32.8,12.9c-3.9-2.6-7.9-5-12.1-7.6c-4.2-4.2-8.4-8.4-12.9-12.6
			c-2.1-2.1-6.6-2.6-7.6,1.8c0,0-16.3-3.7-17.6,10.2c6.8-6.6,16.5-0.8,16.5-0.5s-2.4,1.8-0.5,4.5c0.5-0.3,12.1,4.2,22.3,8.7
			c5.5,2.1,6.8,2.9,9.2,4.2c-2.6-1.3-5.8-2.6-9.2-4.2c-6.3-2.4-12.3-4.2-14.2-3.9c-5.8-0.5-12.1-1.3-15,3.1
			c-6.3,2.6-16,4.7-15.7,16.5c4.2-6.8,10-6.6,17.6-6c-0.3,0.5-0.3,1-0.5,1.6c8.1,3.7,6.6-1,13.9-1.6c6.3-0.5,15.2,1.6,19.9,3.1
			c-6,1.8-13.9,1-17.8,5.2c-0.8,1.3-3.1,0.8-2.1,4.2c0,0-11.5-0.3-14.7,15.7c11.8-7.6,20.7-7.3,21-7.3s3.7,0.8,3.7,0.8
			s14.2-9.4,14.4-9.4s13.6-6,19.7,0.8c5.5,2.6,11,2.9,16.8-0.5c11-4.7,21.3-5,31.2,1.6l9.2,5.5c1.3-0.8,2.6-1.8,3.9-2.6
			c0,0,10.2-2.9,17.8,6.3c-3.1-16-14.4-16.5-14.4-16.5c-0.8-0.8-1.8-1.6-2.6-2.4c-5.5-2.1-10.8-4.2-16.3-6.3
			c-2.4-5.8-8.1-10.5-2.4-17.6c6-29.9,13.1-52.5,1.6-82.6c10.8,4.7,18.9,19.2,32.5,14.2c0-12.1-44.9-35.2-79-53.8
			c56.1-2.9,123.3-44.3,97.6-96.8c4.2-12.6,8.1-25.4,12.3-38c5.8,11.5,17.3,20.5,27.8,24.1c-8.7-16.5-13.6-66.9-8.7-101.8
			c-22.6,27.8-47.5,52.7-74,77.9c13.1,3.1,24.4,0.8,37-0.5c-3.7,7.3-7.1,14.7-10.5,22c-34.4-20.2-74.8-5-75.3,21.8
			c1,31.5,39.9,35.9,62.4,24.9c-4.5,28.6-70.3,18.1-70.3,18.1c-23.4-8.1-45.7-6.6-70.1-6.6c5-15.7,33.3-29.6,55.1-23.6
			c-30.2-33.8,4.2-76.1,45.9-88.9c-45.4-15-6.3-49.6,27.5-74.2c0,0-97.6,41.2-106.5,40.9C522.4,80.1,530,47.3,540.5,29.4L540.5,29.4
			z M234,69.1c2.4,0,5,0.3,7.1,0.8c4.5,1,9.7,1.6,9.7,2.9c-2.1,3.4-7.1,7.6-12.1,7.3c-5-0.3-7.9-3.1-9.4-10.5
			C230.1,69.1,231.9,69.1,234,69.1z M644.9,184.8c6.3,0,14.2,2.6,21.5,10.5c-3.7,10.5-34.9,15.7-37,0.3
			C628.9,191.1,635.7,185,644.9,184.8L644.9,184.8z"/>
		<path id="path11" fill="none" stroke="#000000" stroke-linejoin="round" d="M266.3,159.6l4.7,6.8 M271,166.7c0,0,0,9.2,1.8,9.4
			 M268.7,181.1c0.3,0.3,5,8.1,5,8.1 M260,191.3c0.3,0,6,6.6,6,6.6 M271,192.9c0,0.3,5.5,10.5,6,10.5 M263.9,200
			c0,0,1.8,12.6,3.7,12.1 M255.8,222.8l5.5,8.4 M266,214.2c0,0,2.9,11.8,5.5,10.8 M273.6,207.1c0.3,0.3,5.5,7.9,7.1,6.8
			 M279.4,216.8l5.2,10.2 M271,224.9c0.3,0.5,4.2,12.3,4.2,12.3 M261.1,230.9c0,0,3.9,13.1,7.3,11 M259.5,248.5c0,0,0.3,6.8,3.7,7.3
			 M265.5,245.1c0,0.3,3.4,5,3.4,5 M275.5,237l2.9,4.5 M284.4,228.6l4.2,5.5 M264.5,166.7c0.3,5.8,9.4-2.1,13.1-7.1 M260.5,186.9
			c0,0,10.2-7.1,17.8-17.8 M257.4,203.9c7.1-1.8,20.2-17.8,22.8-26.2 M255.8,219.7c1.8,0.8,26.2-16.8,27-29.6 M255.3,233.3
			c0-0.3,22.3-5.8,31.5-30.2 M254,251.7c0,0,35.7-21.3,37.5-37 M532.1,287.6c0,0-2.4,18.4-20.7,21.3 M538.1,320.7
			c0.3-0.3,17.6-19.4,13.1-25.2 M578.5,302c0,0-0.3,13.4-11.3,22.6 M600.3,306c0,0,0.5,16.3-6.6,22.6 M620.2,315.7
			c0,0-7.6,15.2-10.5,16.5 M620,342.4c0,0,10.2,2.6,13.4-4.2 M622.6,364.2c0,0,9.4,1.6,13.6-7.3 M621.5,381.3c0,0,7.6,6.3,12.9-2.1
			 M512.4,256.9c0,0-0.8,32.8,45.1,39.4c51.4,14.2,75.8,6.6,78.7,64.3c-1.8,22-4.7,46.7-20.5,37.3 M463.6,287.1
			c0,0,7.3,13.1,16.3,12.3c11.5-3.4,16,3.7,16,3.7 M432.1,300.2c0,0,19.4,9.4,35.9-5.8 M434.2,286.6c1.8,22.6-26,35.4-37,33.3
			 M435.5,373.1c0.3,0,15-8.9,12.1-15.2 M406.1,360c0.5-0.5,24.9-2.9,29.4-11.5 M394.6,323.8c0-0.3,34.9,0,37.3,6.6 M441,303.1
			c0,0-34.1,58,28.9,58 M405.1,302.3c0,0-7.3,21.8-17.6,29.1 M368.9,294.7c0,0,12.6,24.4,0,36.5 M335.8,301.8
			c0.3,0.5,4.2,34.6-4.5,44.3 M319.6,302.8c0,0,1.3,21.8-5.2,29.4c-6.6,7.9,1.6,23.9,1.6,23.9 M237.4,366.6c0,0,4.7,8.1,11,5.2
			 M245.3,348.7c0,0,10.2,4.5,13.6,2.9 M256.6,312.3c0,0-15.2,4.2-9.4,22.3c8.9,7.1,17.3,6,17.3,6 M226.4,389.1
			c-0.3,0,1.8,14.2,11.5,3.4c6.8-14.4,28.6-55.1,33.6-69 M281.8,316.7c0,0-10.5-8.1-10.2,3.1c-0.3,7.1,3.1,8.9,3.1,8.9
			c0.5,5.2,5,12.6,8.7,5.8c1.6-6.6-1-9.2-1-9.2 M288.3,313.8c-9.4-0.5-14.7,20.2,3.7,7.1 M298.3,306.5c0,0-2.4,3.1-6-0.3
			c-1.8-3.4-8.9,15.5,3.1,16.3c2.1-5.5,8.9-7.1,8.9-7.1 M309.9,297.6c0,0-5.5,2.6-7.3,2.1c-6.6,1.6-5.2,16.5,2.9,15.7
			c2.9-3.1,5.8-7.9,5.8-7.9 M259.2,277.9c-0.3,0-21.3,33.3,11.8,42 M527.4,227.8c0,0-12.9,11-0.8,28.6
			c-40.1-0.5-61.7,17.8-63.2,30.4c-50.9-3.7-41.7,11.3-58.2,16.3c-22-18.6-54.6-8.1-52.5,10.2c-15-21-37.8-10.8-40.4-5.5
			c-2.9,5.2-1.8-25.7-1.8-25.7s-15,6.6-25.2,18.9c0.3-8.1,0-21.5,0-25.7c-12.3,2.6-24.4,2.6-37.3,2.4 M214.4,268.2
			c0,0,18.6,10.2,41.2-3.7 M212.8,231.2c0,0,14.4,12.9,41.5,8.9 M222,201.3c0,0,3.1,10.5,34.1,11.3 M232.5,176.9
			c0,0,11.5,14.2,27.3,12.1 M242.4,156.7c0,0,4.5,7.9,21.8,8.9 M252.4,134.1c0,0,8.9,10,19.4,8.1 M306.2,53.6c0,0,3.9-3.9,10.8-2.1
			 M303.3,74.6c0,0-12.3-0.5-11.5-5.2c0.8-5.5,13.1-9.4,13.1-9.4s16.3-10.5,18.6-13.9 M250,102.6l15.7,30.2l7.6-11.3l3.9,7.9
			l6.6-11.3l11,7.1l-4.2-13.9l9.4-0.8c0,0-2.4-6.6-11-8.1c2.1-1.8,10-6.8,10-6.8s-4.5-5-11.3-5.2c2.1-2.4,5.2-8.4,5-8.4
			s-6.8-1.6-6.8-1.6s15.7,5,28.1-2.1 M283.9,54.1c0.3,0.3-0.8,6.3-4.2,9.7 M223,70.6c0,0,9.7-2.6,17.1-1s17.1,3.9,17.1,3.9
			s11.5-1.6,15.2-4.2 M198.9,77.2c0,0-1.3,4.7-1.8,7.9c0,2.1-7.1,5-7.1,5 M203.3,67.5c0,0,6.3,7.9,6.6,12.3s-4.7,7.9-4.7,7.9
			 M139.1,120.7l-6.6-10.5l5.8-2.1 M255.5,264.8c-5.2-6.6,3.9-109.1,23.1-135.9c-6.6,48.3,15.5,97.6,21,97.3 M197.3,100.5
			c0,0,8.7,3.4,26.8-11 M248.5,124.2l12.9,0.3 M650.7,43.9c0,0-215.9,101-219.1,106.3c36.5-11,191.3-36.7,194.9-34.6
			c-9.2,2.1-196.8,45.4-205.7,55.6c47-1.6,145.1,15.2,160.3,31.2c-33.3-7.6-133-22.3-163.5-15.7c22.3,5.2,107.8,60.6,107.8,69.5
			c-12.9-12.3-115.7-54.8-119.9-50.6c23.6,14.2,56.9,66.6,56.9,79.5c-6.8-11-66.4-74.8-69.8-70.8c6.3,8.9,18.6,84.2,12.3,87.6
			c0-9.2-23.1-75-24.9-76.9c-4.7,1.3-34.1,80.5-28.3,87.9c-3.7-26.5,0.5-81.6,7.9-79.2c-12.9,1.8-54,56.1-49.6,64.5
			c1.3-13.6,3.1-22.6,26.5-67.4c-25.7,1.6-79.2,35.2-88.4,47.2c7.3-21.5,52.5-57.5,72.4-60.1 M413.8,139.1
			c22.8-12.6,93.4-38.6,140.4-57.5 M369.4,207.3c0,0,15.5-0.3,31.2-42.5c15.2-57.7,137-122.3,139.3-134.3 M163.5,265.3
			c0,0-3.7,7.6-8.1,10 M181,277.1c0,0-4.7,9.4-6,13.9 M197.6,281.6c0,0,3.9,12.9,0.8,18.9 M151.1,248.5
			c-12.3,6.8,7.1,50.4,65.1,54.6 M206.7,279.5c0,0-1.6,7.9,9.4,23.4c-3.1,17.3,13.1,31,19.7,33.3 M202,123.1c0-0.3,1.8-4.7,1.8-4.7
			l2.1,5.2h3.1l2.1-5.2l1.8,5.2h3.1l1.8-5.8l2.9,5.5h2.6l2.1-6.6l4.2,4.7l1.6-0.5l1.3-6.6l3.9,4.7l1-0.8l1.8-6.6l3.4,5l1.6-0.5
			l1.6-5.5l3.1,5 M198.6,123.9l24.1-0.3c7.6,0,20.5-10.8,34.6-7.3 M147.5,175.6c0,0,3.9,8.7,9.4,3.7 M138,181.4c0,0-7.9,21,1.6,25.7
			 M127,158.3c0,0,0,5,10.2-2.6 M95.2,268.2c0,0,8.1,2.4,6.8,8.7 M98.4,172.2c0,0,5,2.4,10-5 M152.4,412.8c8.1-0.5,9.7,3.1,17.1,3.1
			c8.4,0.3,16.5-3.1,27.3-6 M265.5,429.3c-0.3,0-3.7,7.6-0.8,11.3 M151.4,429.8c0,0,12.6-10.5,19.4-3.9c6.6,2.1,10,1.8,10,1.8
			 M158.2,400.2c0,0,3.1,8.1-7.3,6.8 M147.7,418.5c0,0,6.6,4.2-0.8,9.7 M151.6,435.8c0,0,9.2,1.3,3.7,8.7 M446,380.5
			c0,0,24.7,2.6,26,4.5c2.9-2.9,24.9-21-2.1-23.4C465.2,380,446.5,380.8,446,380.5L446,380.5z M437.4,392.8
			c9.2,7.3,5.5,11.8,34.4-7.6 M424,402c0,0,13.6,14.7,23.6-3.1 M398,407.3l-18.6,9.7 M346.3,430.6c0,0,11.3-9.7,16.5-4.5
			c5.2,5.2,27.5-4.5,27.5-4.5 M354.7,388.6c0,0,3.9,7.6-3.7,8.7 M340,412.8c0,0,3.9,7.3-3.7,9.2 M348.7,432.4c0,0,11.5,0.5,7.6,9.4
			 M457.8,430.9c0,0-6.3,5.5-1.8,11.5 M550.7,392c0,0,7.3,3.7-1.3,9.7 M541.8,414.6c0,0,5.5,5.8,1.8,10.8 M557.5,436.9
			c0,0,7.6,2.1,6.8,8.7 M665.1,431.1c0,0-6.3,4.7-2.9,10.8 M551,244.1c15.5-1.8,37.5,32.3,48.5,39.1 M666.9,195.8
			c0,0,7.9,6.8,1,23.1 M681.4,169.5c2.1,1.6,10.5,6,16,16.5 M702.6,118.4c0,0.3-10.8,29.1-10.8,29.1 M714.7,117.1
			c0,0-2.1,26-5.2,31.2 M666.7,195.3c-3.7,10.5-34.9,15.7-37,0.3C628.6,187.9,648,175.8,666.7,195.3z"/>
		<path id="path13" stroke="#000000" stroke-linejoin="round" d="M234,69.1l12.1,2.1C245.8,71.4,237.4,82.7,234,69.1z"/>
	</g>
</g>
</svg>
